<?xml version="1.0" standalone="no"?>
<!DOCTYPE svg PUBLIC "-//W3C//DTD SVG 20010904//EN"
 "http://www.w3.org/TR/2001/REC-SVG-20010904/DTD/svg10.dtd">
<svg version="1.0" xmlns="http://www.w3.org/2000/svg"
 width="512.000000pt" height="512.000000pt" viewBox="0 0 512.000000 512.000000"
 preserveAspectRatio="xMidYMid meet">
<metadata>
Created by potrace 1.14, written by Peter Selinger 2001-2017
</metadata>
<g transform="translate(0.000000,512.000000) scale(0.100000,-0.100000)"
fill="#000000" stroke="none">
<path d="M4590 3828 c-25 -5 -70 -16 -100 -25 -46 -14 -51 -17 -31 -22 73 -19
41 -91 -98 -223 -582 -551 -2681 -1700 -3489 -1909 -230 -59 -313 -28 -227 85
19 26 35 49 35 52 0 10 -154 -120 -247 -210 -108 -104 -153 -167 -153 -218 0
-46 19 -60 85 -66 215 -18 892 236 1718 645 l269 133 488 0 488 0 159 295
c208 387 187 385 277 33 37 -145 72 -278 77 -295 l11 -33 214 0 c118 0 214 3
214 6 0 3 -37 148 -82 322 -45 174 -83 331 -85 347 -4 29 5 37 334 270 l338
240 -212 3 -213 2 -266 -190 c-205 -146 -274 -190 -297 -190 -17 0 -28 2 -25
5 3 3 81 56 174 118 444 294 768 558 854 694 37 57 40 105 8 127 -26 18 -143
20 -218 4z m-1527 -1438 l-48 -90 -114 0 c-63 0 -112 3 -108 6 9 10 301 173
310 174 5 0 -13 -40 -40 -90z"/>
<path d="M960 2898 c-107 -199 -215 -400 -241 -447 -113 -213 -164 -308 -181
-336 -10 -16 -18 -33 -18 -37 0 -5 287 -8 637 -8 l638 0 225 113 225 112 -182
3 c-137 2 -183 6 -183 15 0 6 42 89 93 182 l92 170 432 3 433 2 192 115 193
115 -561 0 -562 0 35 65 34 65 631 0 631 0 159 107 c87 59 161 110 164 115 3
4 -601 8 -1343 8 l-1348 -1 -195 -361z m851 122 c23 -13 24 -29 1 -55 -61 -72
-161 -105 -318 -105 -63 0 -114 2 -114 5 0 3 18 41 40 85 l40 80 166 0 c95 0
174 -4 185 -10z m-202 -406 c89 -26 94 -80 14 -165 -56 -60 -159 -113 -258
-134 -84 -17 -275 -20 -275 -4 0 11 145 283 163 307 15 19 288 16 356 -4z"/>
<path d="M2380 1913 c0 -10 -13 -43 -30 -73 -16 -30 -29 -58 -30 -62 0 -5 19
-8 43 -8 48 0 87 30 87 67 0 11 7 26 15 33 9 7 15 23 13 34 -2 17 -11 22 -50
24 -41 3 -48 0 -48 -15z m75 -12 c8 -13 -23 -41 -46 -41 -22 0 -23 4 -9 31 11
20 45 26 55 10z m-32 -67 c14 -15 -15 -44 -43 -44 -28 0 -29 1 -18 25 11 24
45 34 61 19z"/>
<path d="M2775 1920 c-3 -5 -2 -10 4 -10 5 0 13 5 16 10 3 6 2 10 -4 10 -5 0
-13 -4 -16 -10z"/>
<path d="M3359 1923 c-1 -5 -1 -11 0 -16 1 -4 -12 -34 -29 -67 -16 -33 -30
-62 -30 -65 0 -3 22 -5 49 -5 33 0 51 5 54 14 4 11 -3 13 -34 9 l-40 -6 12 27
c9 19 20 26 40 26 15 0 31 5 34 10 4 6 -5 10 -19 10 -29 0 -30 3 -16 31 12 21
56 26 62 7 3 -8 9 -4 17 10 11 22 11 22 -44 22 -30 0 -56 -3 -56 -7z"/>
<path d="M3780 1920 c0 -5 5 -10 10 -10 6 0 10 5 10 10 0 6 -4 10 -10 10 -5 0
-10 -4 -10 -10z"/>
<path d="M4315 1920 c-3 -5 -2 -10 4 -10 5 0 13 5 16 10 3 6 2 10 -4 10 -5 0
-13 -4 -16 -10z"/>
<path d="M2644 1867 l-27 -23 24 -23 c19 -18 21 -23 9 -31 -8 -5 -21 -5 -31 1
-23 12 -35 -7 -12 -19 21 -12 69 4 78 26 4 11 -2 23 -15 34 -22 18 -19 38 5
38 7 0 15 -6 18 -12 2 -7 8 -10 12 -6 11 11 -2 38 -19 38 -8 0 -27 -10 -42
-23z"/>
<path d="M2860 1880 c-8 -5 -25 -7 -37 -3 -18 4 -23 1 -23 -13 0 -11 -9 -34
-20 -52 -23 -37 -24 -42 -11 -42 6 0 20 18 32 40 21 37 61 62 75 47 3 -3 -4
-23 -16 -46 -19 -38 -19 -41 -3 -41 18 0 42 50 46 95 2 22 -20 30 -43 15z"/>
<path d="M2974 1880 c-27 -11 -64 -57 -64 -81 0 -10 7 -22 16 -27 19 -10 62
-4 71 11 4 6 -3 8 -19 4 -16 -4 -30 -2 -37 7 -15 18 -4 26 40 26 44 0 70 30
48 56 -13 16 -24 17 -55 4z m36 -25 c0 -10 -10 -15 -32 -15 -31 1 -32 1 -14
15 25 19 46 19 46 0z"/>
<path d="M3073 1865 l-28 -25 25 -20 c21 -17 23 -21 10 -30 -19 -12 -27 -12
-35 0 -7 11 -25 4 -25 -10 0 -13 32 -17 62 -7 36 12 44 38 18 59 -22 18 -19
38 5 38 7 0 15 -6 18 -12 2 -7 8 -10 12 -6 11 11 -2 38 -19 38 -8 0 -28 -11
-43 -25z"/>
<path d="M3182 1874 c-26 -18 -28 -42 -4 -60 25 -18 3 -40 -26 -25 -13 7 -23
7 -27 2 -10 -17 31 -32 60 -21 36 14 43 39 17 61 -26 21 -27 25 -5 33 9 4 20
1 24 -6 7 -10 11 -10 21 0 10 10 10 15 -2 22 -21 13 -32 12 -58 -6z"/>
<path d="M3522 1881 c-7 -4 -25 -6 -39 -3 -19 4 -24 1 -21 -9 3 -8 -6 -33 -19
-56 -20 -35 -22 -43 -10 -43 9 0 18 9 22 19 10 33 46 71 66 71 22 0 24 -15 4
-50 -19 -33 -18 -42 3 -38 9 2 17 8 17 13 0 6 6 25 14 42 20 50 1 78 -37 54z"/>
<path d="M3628 1875 c-33 -18 -60 -67 -52 -90 5 -12 15 -16 35 -13 16 3 29 1
29 -3 0 -13 -36 -29 -64 -29 -14 0 -26 -4 -26 -10 0 -16 53 -12 78 5 12 9 34
37 49 63 14 26 33 55 41 65 14 15 13 17 -4 17 -10 0 -28 2 -39 5 -11 3 -32 -2
-47 -10z m52 -25 c0 -17 -43 -60 -61 -60 -26 0 -24 26 5 55 23 23 56 26 56 5z"/>
<path d="M3862 1881 c-7 -4 -24 -6 -38 -3 -19 3 -24 0 -24 -16 0 -12 -9 -37
-21 -56 -17 -30 -18 -36 -6 -36 9 0 18 9 22 19 10 33 46 71 66 71 22 0 24 -15
4 -50 -19 -33 -18 -42 3 -38 9 2 17 8 17 13 0 6 6 25 14 42 20 50 1 78 -37 54z"/>
<path d="M3968 1874 c-51 -27 -72 -102 -29 -105 27 -2 45 2 56 13 7 6 3 9 -10
8 -35 -4 -45 0 -45 15 0 11 12 15 45 15 40 0 45 3 51 26 11 42 -20 55 -68 28z
m50 -22 c2 -8 -8 -12 -30 -12 -31 1 -32 1 -13 15 21 17 37 15 43 -3z"/>
<path d="M4110 1883 c-33 -12 -70 -57 -70 -85 0 -28 9 -33 55 -28 31 3 45 22
15 20 -41 -3 -50 -1 -50 14 0 11 14 16 48 18 45 3 47 4 47 33 0 30 -15 39 -45
28z m28 -31 c2 -8 -8 -12 -30 -12 -31 1 -32 1 -13 15 21 17 37 15 43 -3z"/>
<path d="M4252 1881 c-7 -4 -24 -6 -38 -3 -18 3 -24 0 -24 -12 0 -9 -9 -35
-20 -56 -27 -53 -3 -55 25 -3 21 39 64 68 78 54 5 -5 -1 -24 -12 -42 -26 -43
-26 -49 0 -49 12 0 19 5 16 13 -2 6 4 29 14 49 24 47 24 52 -1 45 -10 -3 -20
-1 -22 4 -2 4 -9 5 -16 0z"/>
<path d="M4407 1883 c-5 -4 -22 -7 -40 -8 -20 0 -31 -5 -29 -13 1 -7 -7 -30
-18 -52 -11 -22 -16 -40 -11 -40 6 0 16 10 22 23 19 36 51 67 71 67 23 0 22
-2 -2 -50 -19 -37 -19 -40 -3 -40 18 0 42 50 46 95 2 20 -23 32 -36 18z"/>
<path d="M4514 1880 c-30 -12 -65 -60 -62 -84 2 -16 10 -21 35 -21 30 0 31 -1
16 -17 -9 -11 -30 -18 -50 -18 -18 0 -33 -4 -33 -10 0 -16 63 -12 88 6 12 8
34 39 49 67 14 29 33 57 42 64 14 11 13 12 -11 13 -14 0 -32 2 -40 4 -7 3 -23
1 -34 -4z m32 -25 c9 -21 -23 -65 -46 -65 -26 0 -26 34 0 60 24 24 39 25 46 5z"/>
<path d="M2490 1861 c0 -10 -7 -31 -15 -47 -16 -31 -5 -57 20 -48 8 3 29 6 47
7 22 2 32 7 30 16 -1 7 7 29 18 48 11 20 18 38 14 42 -3 3 -11 -2 -18 -13 -26
-43 -59 -76 -77 -76 -24 0 -24 2 1 50 l20 40 -20 0 c-13 0 -20 -7 -20 -19z"/>
<path d="M2739 1873 c-1 -5 -1 -12 0 -16 1 -5 -8 -23 -19 -42 -25 -41 -25 -45
1 -45 12 0 19 5 16 13 -2 6 4 29 14 49 11 21 19 40 19 43 0 8 -30 6 -31 -2z"/>
<path d="M3732 1843 c-25 -73 -25 -73 -8 -73 9 0 16 7 16 15 0 9 9 34 20 55
19 37 19 40 3 40 -12 0 -23 -13 -31 -37z"/>
<path d="M2240 1635 c0 -9 -13 -42 -30 -75 -33 -66 -34 -70 -20 -70 5 0 19 18
30 40 26 51 40 51 40 -1 0 -33 3 -40 17 -37 14 3 17 11 15 42 -3 33 1 44 34
77 24 25 33 39 23 39 -8 0 -28 -13 -44 -30 -16 -16 -35 -30 -42 -30 -11 0 -10
6 2 30 15 29 15 30 -5 30 -11 0 -20 -7 -20 -15z"/>
<path d="M2733 1638 c3 -7 -11 -41 -29 -75 -37 -66 -39 -73 -24 -73 5 0 17 14
25 30 18 34 35 31 35 -6 0 -14 6 -24 15 -24 11 0 13 8 8 31 -5 28 -2 36 28 60
22 19 29 29 18 29 -9 0 -24 -9 -34 -20 -33 -37 -48 -25 -25 20 l20 40 -21 0
c-12 0 -19 -5 -16 -12z"/>
<path d="M2850 1635 c0 -9 -13 -42 -30 -75 -33 -66 -34 -70 -20 -70 5 0 19 18
30 40 20 38 63 71 76 57 3 -3 -1 -20 -10 -38 -20 -41 -20 -59 0 -59 9 0 14 6
11 13 -2 6 4 29 15 50 22 45 16 60 -23 55 -33 -5 -33 -4 -19 23 9 16 7 19 -10
19 -11 0 -20 -7 -20 -15z"/>
<path d="M3088 1619 c-10 -10 -17 -22 -16 -26 2 -5 -3 -23 -11 -40 -15 -37 -9
-63 14 -63 17 0 20 16 5 25 -15 9 20 73 44 79 16 5 18 8 7 15 -7 5 -10 14 -7
20 12 18 -18 11 -36 -10z"/>
<path d="M2373 1603 c-25 -10 -12 -22 17 -16 18 3 30 1 30 -5 0 -11 -9 -14
-62 -26 -28 -6 -53 -39 -43 -56 9 -14 101 -7 97 8 -1 7 5 26 13 42 23 44 19
60 -12 59 -16 0 -34 -3 -40 -6z m27 -63 c0 -14 -48 -35 -58 -26 -8 9 26 36 45
36 7 0 13 -5 13 -10z"/>
<path d="M2477 1603 c-15 -15 -5 -22 23 -16 17 3 30 3 30 0 0 -3 -22 -22 -50
-42 -27 -20 -50 -41 -50 -46 0 -15 86 -10 100 6 10 12 6 13 -27 9 l-38 -6 35
29 c19 15 46 38 60 50 l25 22 -51 1 c-28 0 -54 -3 -57 -7z"/>
<path d="M2604 1595 c-18 -14 -16 -15 19 -9 43 7 53 -12 10 -21 -47 -10 -78
-30 -78 -50 0 -17 7 -20 50 -20 35 0 49 4 47 13 -1 7 5 26 13 42 23 44 19 60
-13 60 -16 0 -37 -7 -48 -15z m21 -65 c-19 -21 -45 -27 -45 -10 0 11 30 29 49
30 11 0 10 -5 -4 -20z"/>
<path d="M2977 1592 c-22 -24 -21 -34 3 -50 28 -17 14 -35 -22 -28 -21 4 -28
2 -26 -7 6 -16 42 -21 67 -7 24 13 28 48 6 56 -8 4 -15 13 -15 21 0 12 7 14
30 10 22 -5 30 -3 30 8 0 22 -53 19 -73 -3z"/>
<path d="M3160 1595 c-11 -13 -8 -14 20 -8 25 5 32 3 28 -8 -2 -8 -18 -16 -34
-17 -35 -4 -64 -28 -64 -53 0 -15 8 -18 50 -17 42 1 50 4 50 20 0 11 7 32 15
49 9 16 13 34 10 39 -9 15 -61 12 -75 -5z m30 -53 c0 -14 -23 -32 -42 -32 -23
0 -23 16 0 29 21 13 42 14 42 3z"/>
<path d="M3270 1593 c0 -8 -9 -31 -20 -53 -23 -45 -24 -50 -10 -50 5 0 19 18
30 40 20 39 63 71 77 56 4 -3 -1 -22 -10 -41 -21 -44 -21 -55 -2 -55 9 0 15 9
15 23 0 12 7 31 15 41 8 11 15 28 15 37 0 15 -9 17 -55 16 -39 -1 -55 -5 -55
-14z"/>
</g>
</svg>
