<svg width="60" height="60" viewBox="0 0 60 60" fill="none" xmlns="http://www.w3.org/2000/svg">
<g clip-path="url(#clip0_32_90)">
<path d="M15 50C17.75 50 20 47.75 20 45V27.5C20 24.75 17.75 22.5 15 22.5C12.25 22.5 10 24.75 10 27.5V45C10 47.75 12.25 50 15 50Z" fill="#FF9500"/>
<path d="M40 37.5V45C40 47.75 42.25 50 45 50C47.75 50 50 47.75 50 45V37.5C50 34.75 47.75 32.5 45 32.5C42.25 32.5 40 34.75 40 37.5Z" fill="#FF9500"/>
<path d="M30 50C32.75 50 35 47.75 35 45V15C35 12.25 32.75 10 30 10C27.25 10 25 12.25 25 15V45C25 47.75 27.25 50 30 50Z" fill="#FF9500"/>
</g>
<defs>
<clipPath id="clip0_32_90">
<rect width="60" height="60" fill="white"/>
</clipPath>
</defs>
</svg>
