<svg width="32" height="32" viewBox="0 0 32 32" fill="none" xmlns="http://www.w3.org/2000/svg">
<g clip-path="url(#clip0_88_33)">
<path d="M20 26.6667H6.66667V9.33341C6.66667 8.60008 6.06667 8.00008 5.33333 8.00008C4.6 8.00008 4 8.60008 4 9.33341V26.6667C4 28.1334 5.2 29.3334 6.66667 29.3334H20C20.7333 29.3334 21.3333 28.7334 21.3333 28.0001C21.3333 27.2667 20.7333 26.6667 20 26.6667ZM26.6667 21.3334V5.33341C26.6667 3.86675 25.4667 2.66675 24 2.66675H12C10.5333 2.66675 9.33333 3.86675 9.33333 5.33341V21.3334C9.33333 22.8001 10.5333 24.0001 12 24.0001H24C25.4667 24.0001 26.6667 22.8001 26.6667 21.3334ZM24 21.3334H12V5.33341H24V21.3334Z" fill="#50555C"/>
</g>
<defs>
<clipPath id="clip0_88_33">
<rect width="32" height="32" fill="white"/>
</clipPath>
</defs>
</svg>
