<svg width="60" height="60" viewBox="0 0 60 60" fill="none" xmlns="http://www.w3.org/2000/svg">
<g clip-path="url(#clip0_59_32)">
<path d="M49.7 46.175C50.9 44.25 51.575 42 51.425 39.525C51.1 34.15 46.825 29.6 41.5 29.025C34.7 28.275 28.95 33.55 28.95 40.2C28.95 46.425 33.975 51.45 40.175 51.45C42.375 51.45 44.425 50.8 46.15 49.7L52.175 55.725C53.15 56.7 54.75 56.7 55.725 55.725C56.7 54.75 56.7 53.15 55.725 52.175L49.7 46.175ZM40.2 46.45C36.75 46.45 33.95 43.65 33.95 40.2C33.95 36.75 36.75 33.95 40.2 33.95C43.65 33.95 46.45 36.75 46.45 40.2C46.45 43.65 43.65 46.45 40.2 46.45ZM39.3 25.2C37.45 25.25 35.675 25.65 34.05 26.325L32.675 24.25L24.975 36.775C24.075 38.225 22.05 38.375 20.95 37.1L15.65 30.925L7.99999 43.175C7.22499 44.4 5.57499 44.725 4.39999 43.875C3.34999 43.1 3.04999 41.65 3.74999 40.525L13.2 25.4C14.1 23.975 16.125 23.825 17.225 25.1L22.5 31.25L30.45 18.325C31.4 16.775 33.65 16.725 34.65 18.25L39.3 25.2ZM45.775 26.45C44.175 25.75 42.45 25.325 40.65 25.225L52 7.25001C52.775 6.02501 54.425 5.72501 55.575 6.57501C56.65 7.35001 56.925 8.82501 56.225 9.92501L45.775 26.45Z" fill="#FF2D55"/>
</g>
<defs>
<clipPath id="clip0_59_32">
<rect width="60" height="60" fill="white"/>
</clipPath>
</defs>
</svg>
