<svg width="24" height="24" viewBox="0 0 24 24" fill="none" xmlns="http://www.w3.org/2000/svg">
<g clip-path="url(#clip0_210_2)">
<path fill-rule="evenodd" clip-rule="evenodd" d="M17.5649 7.66542C17.2326 7.33308 16.7235 7.30479 16.3063 7.53814C15.1608 8.18868 13.6829 8.02604 12.7071 7.05024L9.17158 3.5147L9.87868 2.80759C10.2676 2.41869 10.2676 1.78229 9.87868 1.39338C9.48977 1.00447 8.85338 1.00447 8.46447 1.39338L1.3934 8.46445C1.00449 8.85336 1.00449 9.48975 1.3934 9.87866C1.78231 10.2676 2.41871 10.2676 2.80761 9.87866L3.51472 9.17156L7.05025 12.7071C8.02606 13.6829 8.1887 15.1607 7.53816 16.3063C7.30481 16.7235 7.3331 17.2326 7.66544 17.5649L7.75736 17.6568C8.14627 18.0457 8.78267 18.0457 9.17158 17.6568L12.693 14.1354L17.6569 19.0711C18.0458 19.46 18.6822 19.46 19.0711 19.0711C19.46 18.6821 19.46 18.0457 19.0711 17.6568L14.1072 12.7212L17.6569 9.17156C18.0458 8.78265 18.0458 8.14625 17.6569 7.75734L17.5649 7.66542Z" fill="#FF2D55"/>
</g>
<defs>
<clipPath id="clip0_210_2">
<rect width="24" height="24" fill="white"/>
</clipPath>
</defs>
</svg>
