<svg width="60" height="60" viewBox="0 0 60 60" fill="none" xmlns="http://www.w3.org/2000/svg">
<g clip-path="url(#clip0_32_59)">
<path d="M48.65 25C48.4034 25.3645 48.2573 25.7875 48.2266 26.2265C48.1959 26.6655 48.2815 27.1048 48.475 27.5C49.0955 28.9482 49.5322 30.4683 49.775 32.025C50.4185 36.0504 49.8166 40.1763 48.05 43.85C47.8354 44.253 47.5146 44.5895 47.1224 44.8231C46.7302 45.0566 46.2815 45.1783 45.825 45.175H14.2C13.7409 45.176 13.2904 45.0505 12.898 44.8124C12.5055 44.5742 12.1861 44.2326 11.975 43.825C10.3747 40.5786 9.68533 36.9588 9.98044 33.3514C10.2755 29.7441 11.544 26.2844 13.6507 23.3413C15.7573 20.3981 18.6232 18.0818 21.9427 16.6392C25.2622 15.1967 28.911 14.682 32.5 15.15C34.3159 15.3635 36.0922 15.8349 37.775 16.55C38.1702 16.7434 38.6095 16.8291 39.0485 16.7984C39.4875 16.7677 39.9105 16.6216 40.275 16.375C40.6547 16.1249 40.959 15.7759 41.1551 15.3657C41.3512 14.9555 41.4318 14.4996 41.388 14.047C41.3443 13.5944 41.178 13.1623 40.907 12.7972C40.636 12.4321 40.2705 12.1479 39.85 11.975C35.0205 9.90415 29.6612 9.40773 24.5335 10.5563C19.4058 11.7048 14.7703 14.4399 11.2856 18.373C7.8009 22.3061 5.6441 27.2372 5.1216 32.466C4.5991 37.6947 5.73746 42.9551 8.37498 47.5C8.81125 48.2557 9.4377 48.8841 10.1921 49.3226C10.9464 49.7612 11.8024 49.9947 12.675 50H47.3C48.181 50.0035 49.0474 49.7741 49.8112 49.3351C50.5751 48.8961 51.2095 48.263 51.65 47.5C53.5809 44.1536 54.71 40.4052 54.9486 36.5491C55.1871 32.6929 54.5287 28.8339 53.025 25.275C52.8345 24.8694 52.5386 24.5225 52.168 24.2704C51.7975 24.0184 51.3661 23.8706 50.9189 23.8425C50.4717 23.8144 50.0251 23.907 49.626 24.1107C49.2268 24.3143 48.8897 24.6214 48.65 25Z" fill="#34C759"/>
<path d="M26.475 31.475C25.5368 32.4132 25.0097 33.6856 25.0097 35.0125C25.0097 35.6694 25.1391 36.32 25.3905 36.9269C25.6419 37.5339 26.0104 38.0854 26.475 38.5499C26.9395 39.0145 27.491 39.383 28.098 39.6344C28.705 39.8858 29.3555 40.0152 30.0125 40.0152C31.3393 40.0152 32.6118 39.4882 33.55 38.5499L47.7 17.325L26.475 31.475Z" fill="#34C759"/>
</g>
<defs>
<clipPath id="clip0_32_59">
<rect width="60" height="60" fill="white"/>
</clipPath>
</defs>
</svg>
