<svg width="60" height="60" viewBox="0 0 60 60" fill="none" xmlns="http://www.w3.org/2000/svg">
<g clip-path="url(#clip0_59_36)">
<path d="M48.25 42.25C49.7 39.725 50.625 36.675 49.525 33.125C48.2 28.825 44.425 25.5 39.925 25.075C32.75 24.375 26.85 30.25 27.55 37.45C28 41.925 31.3 45.725 35.6 47.05C39.175 48.15 42.2 47.225 44.725 45.775L50.975 52.025C51.95 53 53.5 53 54.475 52.025C55.45 51.05 55.45 49.5 54.475 48.525L48.25 42.25ZM38.75 42.5C35.25 42.5 32.5 39.75 32.5 36.25C32.5 32.75 35.25 30 38.75 30C42.25 30 45 32.75 45 36.25C45 39.75 42.25 42.5 38.75 42.5ZM30 50V55C16.2 55 5 43.8 5 30C5 16.2 16.2 5 30 5C42.1 5 52.175 13.6 54.5 25H49.325C47.725 18.85 43.325 13.825 37.5 11.475V12.5C37.5 15.25 35.25 17.5 32.5 17.5H27.5V22.5C27.5 23.875 26.375 25 25 25H20V30H25V37.5H22.5L10.525 25.525C10.2 26.975 10 28.45 10 30C10 41.025 18.975 50 30 50Z" fill="#5856D6"/>
</g>
<defs>
<clipPath id="clip0_59_36">
<rect width="60" height="60" fill="white"/>
</clipPath>
</defs>
</svg>
